<svg
  viewBox="0 0 130 200"
  xmlns="http://www.w3.org/2000/svg"
  fill="none"
>
  <defs>
    <radialGradient id="bellG" cx="46%" cy="28%" r="64%">
      <stop offset="0%" stop-color="#cdd8e0" stop-opacity="0.98" />
      <stop offset="40%" stop-color="#a8c0cc" stop-opacity="0.90" />
      <stop offset="80%" stop-color="#88aab8" stop-opacity="0.72" />
      <stop offset="100%" stop-color="#6a96a8" stop-opacity="0.52" />
    </radialGradient>
    <radialGradient id="domeG" cx="40%" cy="22%" r="54%">
      <stop offset="0%" stop-color="white" stop-opacity="0.72" />
      <stop offset="60%" stop-color="white" stop-opacity="0.28" />
      <stop offset="100%" stop-color="white" stop-opacity="0.04" />
    </radialGradient>
    <radialGradient id="blushG" cx="50%" cy="88%" r="55%">
      <stop offset="0%" stop-color="#c8a0a0" stop-opacity="0.45" />
      <stop offset="100%" stop-color="#c8a0a0" stop-opacity="0.08" />
    </radialGradient>
    <radialGradient id="sageG" cx="50%" cy="100%" r="50%">
      <stop offset="0%" stop-color="#8aaa9a" stop-opacity="0.34" />
      <stop offset="100%" stop-color="#8aaa9a" stop-opacity="0.06" />
    </radialGradient>
    <linearGradient id="tentG" x1="0%" y1="0%" x2="5%" y2="100%">
      <stop offset="0%" stop-color="#7aacaa" stop-opacity="0.80" />
      <stop offset="55%" stop-color="#88aaaa" stop-opacity="0.58" />
      <stop offset="100%" stop-color="#8aaa9a" stop-opacity="0.22" />
    </linearGradient>
    <linearGradient id="tentG2" x1="0%" y1="0%" x2="0%" y2="100%">
      <stop offset="0%" stop-color="#9ab8c0" stop-opacity="0.72" />
      <stop offset="100%" stop-color="#9ab8c0" stop-opacity="0.24" />
    </linearGradient>
    <filter id="wcBlur" x="-8%" y="-8%" width="116%" height="116%">
      <feTurbulence
        type="fractalNoise"
        baseFrequency="0.04 0.06"
        numOctaves="3"
        seed="5"
        result="noise"
      />
      <feDisplacementMap
        in="SourceGraphic"
        in2="noise"
        scale="1.2"
        xChannelSelector="R"
        yChannelSelector="G"
        result="displaced"
      />
      <feGaussianBlur in="displaced" stdDeviation="0.2" />
    </filter>
    <filter id="tentBlur">
      <feGaussianBlur stdDeviation="0.08" />
    </filter>
  </defs>

  <ellipse
    cx="65"
    cy="96"
    rx="36"
    ry="7"
    fill="rgba(122,172,170,0.16)"
    filter="url(#wcBlur)"
  />

  <g>
    <path
      filter="url(#wcBlur)"
      d="M20 70 Q20 24 65 17 Q110 24 110 70 Q110 96 65 100 Q20 96 20 70Z"
      fill="url(#bellG)"
    />

    <path
      filter="url(#wcBlur)"
      d="M20 70 Q20 96 65 100 Q110 96 110 70 Q88 88 65 90 Q42 88 20 70Z"
      fill="url(#blushG)"
    />

    <path
      filter="url(#wcBlur)"
      d="M20 70 Q20 96 65 100 Q110 96 110 70 Q88 88 65 90 Q42 88 20 70Z"
      fill="url(#sageG)"
    />

    <path
      filter="url(#wcBlur)"
      d="M36 60 Q36 28 65 22 Q94 28 94 60 Q94 78 65 80 Q36 78 36 60Z"
      fill="url(#domeG)"
    />

    <path
      filter="url(#wcBlur)"
      d="M20 70 Q20 24 65 17 Q110 24 110 70 Q110 96 65 100 Q20 96 20 70Z"
      stroke="rgba(100,150,170,0.34)"
      stroke-width="1.2"
      fill="none"
    />

    <ellipse
      cx="42"
      cy="70"
      rx="9"
      ry="6.5"
      fill="rgba(200,155,148,0.50)"
      filter="url(#wcBlur)"
    />
    <ellipse
      cx="88"
      cy="70"
      rx="9"
      ry="6.5"
      fill="rgba(200,155,148,0.50)"
      filter="url(#wcBlur)"
    />

    <ellipse
      cx="53"
      cy="57"
      rx="4.5"
      ry="5"
      fill="rgba(28,40,55,0.90)"
    />
    <ellipse
      cx="77"
      cy="57"
      rx="4.5"
      ry="5"
      fill="rgba(28,40,55,0.90)"
    />
    <circle cx="54.8" cy="55" r="1.6" fill="white" opacity="0.94" />
    <circle cx="78.8" cy="55" r="1.6" fill="white" opacity="0.94" />

    <path
      d="M57 65 Q65 71 73 65"
      stroke="rgba(28,40,55,0.62)"
      stroke-width="1.7"
      stroke-linecap="round"
      fill="none"
    />

    <path
      filter="url(#wcBlur)"
      d="M20 70 Q30 86 40 78 Q50 86 60 78 Q65 86 65 78 Q65 86 70 78 Q80 86 90 78 Q100 86 110 70"
      stroke="rgba(122,172,160,0.60)"
      stroke-width="1.4"
      fill="none"
      stroke-linecap="round"
    />

    <g filter="url(#tentBlur)">
      <path
        d="M30 92 Q22 114 28 132 Q33 148 26 165 Q22 178 29 192"
        stroke="url(#tentG)"
        stroke-width="1.5"
        stroke-linecap="round"
      />
      <path
        d="M41 96 Q34 120 40 138 Q45 154 38 170"
        stroke="url(#tentG2)"
        stroke-width="1.1"
        stroke-linecap="round"
        opacity="0.95"
      />
      <path
        d="M52 99 Q46 124 52 142 Q56 158 50 175 Q47 186 53 196"
        stroke="url(#tentG)"
        stroke-width="1.4"
        stroke-linecap="round"
      />
      <path
        d="M63 100 Q62 126 64 145 Q64 162 62 178"
        stroke="url(#tentG2)"
        stroke-width="1.1"
        stroke-linecap="round"
        opacity="0.92"
      />
      <path
        d="M75 100 Q77 128 75 147 Q73 164 76 180 Q77 190 73 198"
        stroke="url(#tentG)"
        stroke-width="1.4"
        stroke-linecap="round"
      />
      <path
        d="M86 97 Q92 122 86 140 Q81 156 86 172"
        stroke="url(#tentG2)"
        stroke-width="1.1"
        stroke-linecap="round"
        opacity="0.94"
      />
      <path
        d="M97 92 Q104 114 98 132 Q93 150 98 167 Q102 180 96 192"
        stroke="url(#tentG)"
        stroke-width="1.5"
        stroke-linecap="round"
      />
    </g>
  </g>
</svg>
